<?xml version="1.0" standalone="no"?>
<!DOCTYPE svg PUBLIC "-//W3C//DTD SVG 20010904//EN"
 "http://www.w3.org/TR/2001/REC-SVG-20010904/DTD/svg10.dtd">
<svg version="1.0" xmlns="http://www.w3.org/2000/svg"
 width="300.000000pt" height="300.000000pt" viewBox="0 0 300.000000 300.000000"
 preserveAspectRatio="xMidYMid meet">
<metadata>
Created by potrace 1.14, written by Peter Selinger 2001-2017
</metadata>
<g transform="translate(0.000000,300.000000) scale(0.100000,-0.100000)"
fill="#000000" stroke="none">
<path d="M0 1500 l0 -1500 1500 0 1500 0 0 1500 0 1500 -1500 0 -1500 0 0
-1500z m790 496 c0 -31 -21 -53 -61 -61 -23 -5 -29 -11 -24 -23 3 -9 38 -144
77 -299 39 -156 73 -283 77 -283 3 0 49 134 101 298 l96 297 56 3 57 3 16 -53
c8 -29 48 -168 89 -308 l74 -255 21 70 c11 39 52 177 90 308 66 227 68 237 47
237 -47 0 -66 12 -66 39 0 46 14 51 152 51 123 0 128 -1 128 -21 0 -33 -17
-56 -48 -62 -28 -6 -30 -11 -154 -409 l-126 -403 -71 -3 -70 -3 -83 256 c-45
140 -85 255 -88 255 -3 0 -44 -115 -90 -255 l-85 -256 -74 3 -74 3 -109 365
c-59 201 -113 381 -118 401 -9 32 -15 37 -50 43 -44 7 -51 25 -24 64 15 21 21
22 175 22 l159 0 0 -24z m1340 6 c0 -30 -28 -59 -65 -66 l-35 -7 0 -169 c0
-94 3 -170 8 -170 6 1 90 110 245 315 l18 25 -40 6 c-44 7 -52 25 -31 65 10
17 23 19 161 19 l149 0 -6 -27 c-10 -42 -21 -51 -68 -58 -39 -6 -48 -14 -123
-108 -44 -56 -99 -125 -122 -153 l-40 -51 142 -204 142 -204 43 -3 c37 -3 42
-6 42 -28 0 -13 -9 -33 -20 -44 -18 -18 -31 -20 -112 -18 l-91 3 -119 169
c-65 94 -122 174 -128 180 -6 6 -16 1 -29 -15 -18 -21 -20 -36 -18 -134 l2
-110 53 -3 c49 -3 52 -5 52 -29 0 -15 -7 -35 -17 -45 -14 -16 -34 -18 -186
-18 l-169 0 6 28 c8 34 41 62 72 62 l24 0 0 359 0 358 -51 7 c-49 7 -51 8 -44
34 13 51 16 52 191 52 150 0 164 -1 164 -18z"/>
</g>
</svg>
